<svg xmlns="http://www.w3.org/2000/svg" xmlns:xlink="http://www.w3.org/1999/xlink" viewBox="0 0 36 36"><defs><style>.cls-1{fill:url(#radial-gradient);}.cls-2{fill:url(#radial-gradient-2);}.cls-3{opacity:0.89;fill:url(#radial-gradient-3);}.cls-4{fill:url(#radial-gradient-4);}.cls-5{fill:url(#radial-gradient-5);}.cls-6,.cls-7{opacity:0.7;}.cls-6{fill:url(#radial-gradient-6);}.cls-7{fill:url(#radial-gradient-7);}.cls-8{opacity:0.69;fill:url(#radial-gradient-8);}.cls-9{fill:none;stroke:#fff;stroke-miterlimit:10;stroke-width:0.4px;opacity:0.37;}</style><radialGradient id="radial-gradient" cx="17.95" cy="17.95" r="17.89" gradientUnits="userSpaceOnUse"><stop offset="0" stop-color="#2bcef2"/><stop offset="0.05" stop-color="#28bae5"/><stop offset="0.24" stop-color="#1c79ba"/><stop offset="0.41" stop-color="#134597"/><stop offset="0.55" stop-color="#0c1f7f"/><stop offset="0.67" stop-color="#080870"/><stop offset="0.74" stop-color="#07006a"/></radialGradient><radialGradient id="radial-gradient-2" cx="18" cy="18" r="21.97" gradientUnits="userSpaceOnUse"><stop offset="0" stop-color="#fff"/><stop offset="0.22" stop-color="#fff" stop-opacity="0.71"/><stop offset="0.43" stop-color="#fff" stop-opacity="0.46"/><stop offset="0.62" stop-color="#fff" stop-opacity="0.26"/><stop offset="0.78" stop-color="#fff" stop-opacity="0.12"/><stop offset="0.91" stop-color="#fff" stop-opacity="0.03"/><stop offset="1" stop-color="#fff" stop-opacity="0"/></radialGradient><radialGradient id="radial-gradient-3" cx="12" cy="9" r="6.75" gradientUnits="userSpaceOnUse"><stop offset="0" stop-color="#fff"/><stop offset="0.13" stop-color="#fff" stop-opacity="0.77"/><stop offset="0.28" stop-color="#fff" stop-opacity="0.54"/><stop offset="0.42" stop-color="#fff" stop-opacity="0.34"/><stop offset="0.56" stop-color="#fff" stop-opacity="0.2"/><stop offset="0.68" stop-color="#fff" stop-opacity="0.09"/><stop offset="0.79" stop-color="#fff" stop-opacity="0.02"/><stop offset="0.87" stop-color="#fff" stop-opacity="0"/></radialGradient><radialGradient id="radial-gradient-4" cx="27" cy="8" r="6.59" gradientUnits="userSpaceOnUse"><stop offset="0" stop-color="#fff"/><stop offset="0.02" stop-color="#fff" stop-opacity="0.95"/><stop offset="0.12" stop-color="#fff" stop-opacity="0.73"/><stop offset="0.22" stop-color="#fff" stop-opacity="0.54"/><stop offset="0.33" stop-color="#fff" stop-opacity="0.37"/><stop offset="0.43" stop-color="#fff" stop-opacity="0.24"/><stop offset="0.54" stop-color="#fff" stop-opacity="0.13"/><stop offset="0.65" stop-color="#fff" stop-opacity="0.06"/><stop offset="0.76" stop-color="#fff" stop-opacity="0.01"/><stop offset="0.87" stop-color="#fff" stop-opacity="0"/></radialGradient><radialGradient id="radial-gradient-5" cx="24" cy="29" r="7.01" xlink:href="#radial-gradient-4"/><radialGradient id="radial-gradient-6" cx="22.45" cy="14.55" r="3.37" xlink:href="#radial-gradient-4"/><radialGradient id="radial-gradient-7" cx="14.45" cy="25.55" r="3.09" xlink:href="#radial-gradient-4"/><radialGradient id="radial-gradient-8" cx="7.5" cy="23.5" r="5.26" xlink:href="#radial-gradient-4"/></defs><title>Project</title><g id="Project"><rect class="cls-1" width="36" height="36"/><polygon class="cls-2" points="19.12 16.88 18 0 16.88 16.88 0 18 16.88 19.12 18 36 19.12 19.12 36 18 19.12 16.88"/><polygon class="cls-3" points="12.31 8.69 12 4 11.69 8.69 7 9 11.69 9.31 12 14 12.31 9.31 17 9 12.31 8.69"/><polygon class="cls-4" points="27.31 7.69 27 3 26.69 7.69 22 8 26.69 8.31 27 13 27.31 8.31 32 8 27.31 7.69"/><polygon class="cls-5" points="24.31 28.69 24 24 23.69 28.69 19 29 23.69 29.31 24 34 24.31 29.31 29 29 24.31 28.69"/><polygon class="cls-6" points="22.6 14.4 22.45 12.1 22.3 14.4 20 14.55 22.3 14.7 22.45 17 22.6 14.7 24.9 14.55 22.6 14.4"/><polygon class="cls-7" points="14.6 25.4 14.45 23.1 14.3 25.4 12 25.55 14.3 25.7 14.45 28 14.6 25.7 16.9 25.55 14.6 25.4"/><polygon class="cls-8" points="7.78 23.22 7.5 19 7.22 23.22 3 23.5 7.22 23.78 7.5 28 7.78 23.78 12 23.5 7.78 23.22"/><circle class="cls-9" cx="18" cy="18" r="6.5"/></g></svg>